<svg width="54" height="54" viewBox="0 0 67 67" fill="none" xmlns="http://www.w3.org/2000/svg">
<circle cx="33.3926" cy="33.3926" r="33.3926" fill="url(#paint0_linear_6_12)"/>
<path d="M19.0886 36.9098L23.271 33.4036C23.3044 33.3869 23.3378 33.2116 23.3712 32.8777C23.4213 32.5437 23.463 32.1597 23.4964 31.7256C23.5298 31.2748 23.5632 30.8157 23.5966 30.3482C23.63 29.864 23.655 29.4716 23.6717 29.1711C23.6717 28.9874 23.6717 28.737 23.6717 28.4197C23.6884 28.0858 23.6968 27.7185 23.6968 27.3178C23.6968 26.9171 23.6968 26.4997 23.6968 26.0656C23.6968 25.6314 23.6968 25.2224 23.6968 24.8384C23.6968 24.4544 23.6884 24.1121 23.6717 23.8116C23.6717 23.511 23.6717 23.294 23.6717 23.1604C23.6717 23.1103 23.6467 23.0185 23.5966 22.8849C23.5632 22.7513 23.5298 22.6094 23.4964 22.4591C23.4797 22.3089 23.4463 22.1753 23.3962 22.0584C23.3461 21.9249 23.3044 21.8247 23.271 21.7579C22.8035 21.7412 22.3277 21.7746 21.8435 21.8581C21.3593 21.9416 20.8751 22.0501 20.3909 22.1837C19.9234 22.3005 19.4559 22.4007 18.9884 22.4842C18.5209 22.5677 18.0785 22.5677 17.6611 22.4842C17.5609 22.2671 17.6694 22.0417 17.9866 21.808C18.3039 21.5575 18.763 21.3405 19.3641 21.1568C19.9818 20.9732 20.6914 20.8229 21.4929 20.706C22.311 20.5892 23.1458 20.5391 23.9973 20.5558C24.8655 20.5725 25.717 20.6643 26.5518 20.8313C27.4034 20.9982 28.1547 21.2654 28.8058 21.6327C29.4737 22 30.008 22.4842 30.4087 23.0853C30.8261 23.6863 31.0348 24.4293 31.0348 25.3142C31.0348 25.6314 30.9764 25.9654 30.8595 26.316C30.7593 26.6499 30.6257 26.9922 30.4588 27.3428C30.2918 27.6934 30.0998 28.0357 29.8828 28.3696C29.6657 28.6869 29.4653 28.954 29.2817 29.1711C29.1815 29.2712 29.0229 29.4382 28.8058 29.672C28.5888 29.889 28.3383 30.1395 28.0545 30.4233C27.7874 30.7071 27.4952 30.9993 27.178 31.2998C26.8774 31.6004 26.5852 31.8926 26.3014 32.1764C26.0343 32.4435 25.7838 32.6856 25.5501 32.9027C25.333 33.1197 25.166 33.2867 25.0492 33.4036C25.0158 33.7375 24.9657 34.038 24.8989 34.3052C24.8321 34.5723 24.7236 34.7727 24.5733 34.9063C24.4398 35.0565 24.2644 35.1233 24.0474 35.1066C23.847 35.1066 23.5882 35.0064 23.271 34.8061C22.9872 35.0064 22.6783 35.2903 22.3444 35.6576C22.0271 36.0249 21.6849 36.3839 21.3175 36.7345C20.9669 37.0851 20.5996 37.3606 20.2156 37.561C19.8316 37.7613 19.4559 37.778 19.0886 37.6111V36.9098ZM25.0492 21.7579V31.9761C25.9007 31.6254 26.652 31.1078 27.3032 30.4233C27.971 29.7387 28.497 28.9958 28.881 28.1943C29.265 27.3762 29.4987 26.5497 29.5822 25.7149C29.6657 24.8801 29.5655 24.1455 29.2817 23.511C28.9979 22.8766 28.5137 22.3924 27.8291 22.0584C27.1446 21.7078 26.2179 21.6076 25.0492 21.7579ZM37.0539 34.6809C37.0372 34.5974 37.0288 34.4638 37.0288 34.2801C37.0288 34.1132 37.0372 34.0047 37.0539 33.9546C37.0706 33.9379 37.1123 33.9128 37.1791 33.8794C37.2459 33.8627 37.3127 33.8293 37.3795 33.7793C37.463 33.7292 37.5381 33.6874 37.6049 33.654C37.6884 33.6373 37.7384 33.6206 37.7551 33.6039C38.3562 33.437 38.9489 33.2617 39.5333 33.078C40.1344 32.8777 40.7187 32.6606 41.2864 32.4269C41.8541 32.1931 42.3967 31.9176 42.9143 31.6004C43.4486 31.2665 43.9578 30.8908 44.442 30.4734C45.6108 29.4048 46.4456 28.4949 46.9465 27.7435C47.4473 26.9755 47.7145 26.3243 47.7479 25.7901C47.7813 25.2558 47.6143 24.83 47.247 24.5128C46.8964 24.1956 46.4456 23.9618 45.8946 23.8116C45.3436 23.6446 44.7425 23.5611 44.0914 23.5611C43.4402 23.5444 42.8308 23.5778 42.2631 23.6613C41.6955 23.7281 41.2196 23.8366 40.8356 23.9869C40.4516 24.1371 40.2512 24.2957 40.2345 24.4627L39.5333 31.5002C39.5333 31.6171 39.4665 31.7089 39.3329 31.7757C39.2161 31.8425 39.0908 31.8759 38.9573 31.8759C38.8404 31.8759 38.7319 31.8425 38.6317 31.7757C38.5315 31.7089 38.4814 31.6171 38.4814 31.5002V25.8402H37.0539C37.0539 25.8068 37.0539 25.7567 37.0539 25.6899C37.0539 25.6064 37.0539 25.548 37.0539 25.5146C37.104 25.4311 37.1958 25.3059 37.3294 25.1389C37.463 24.9719 37.5965 24.7966 37.7301 24.613C37.8804 24.4293 38.0223 24.254 38.1558 24.087C38.3061 23.9201 38.4146 23.8116 38.4814 23.7615C38.4981 23.5945 38.5232 23.294 38.5566 22.8599C38.59 22.4091 38.6233 21.9416 38.6567 21.4574C38.6901 20.9732 38.7235 20.514 38.7569 20.0799C38.7903 19.6458 38.8154 19.3453 38.832 19.1783C38.8487 18.811 38.807 18.5522 38.7068 18.4019C38.6066 18.235 38.4647 18.1515 38.2811 18.1515C38.1141 18.1348 37.9221 18.1849 37.705 18.3018C37.488 18.4019 37.2709 18.5272 37.0539 18.6774C36.8368 18.8277 36.6281 18.9863 36.4278 19.1533C36.2441 19.3035 36.1022 19.4204 36.002 19.5039C35.9018 19.6375 35.7098 19.8378 35.426 20.105C35.1589 20.3554 34.875 20.6309 34.5745 20.9314C34.274 21.232 33.9901 21.5158 33.723 21.7829C33.4558 22.0501 33.2805 22.2421 33.197 22.359H32.1201C32.0033 21.9583 32.0784 21.5492 32.3455 21.1318C32.6294 20.7144 33.0468 20.2803 33.5978 19.8295C34.1654 19.3787 34.8249 18.9362 35.5763 18.5021C36.3443 18.0513 37.1541 17.6256 38.0056 17.2249C38.8738 16.8241 39.7336 16.4568 40.5852 16.1229C41.4367 15.789 42.2381 15.5051 42.9894 15.2714C43.7408 15.0209 44.4003 14.8373 44.9679 14.7204C45.5523 14.5868 45.9697 14.5451 46.2202 14.5952C46.4539 14.6453 46.6042 14.7788 46.671 14.9959C46.7378 15.2129 46.7545 15.455 46.7211 15.7222C46.6877 15.9726 46.6125 16.2314 46.4957 16.4986C46.3955 16.749 46.3037 16.941 46.2202 17.0746C45.8028 17.659 45.4104 18.1932 45.0431 18.6774C44.6925 19.1616 44.3335 19.6208 43.9662 20.0549C43.5988 20.4723 43.1981 20.898 42.764 21.3321C42.3466 21.7496 41.8624 22.2087 41.3115 22.7096C41.7789 22.7931 42.2214 22.8098 42.6388 22.7597C43.0562 22.6929 43.4653 22.6345 43.866 22.5844C44.2834 22.5176 44.7175 22.4842 45.1683 22.4842C45.6191 22.4675 46.0866 22.5426 46.5708 22.7096C46.8713 22.8098 47.1301 22.9099 47.3472 23.0101C47.5809 23.1103 47.7813 23.2355 47.9482 23.3858C48.1319 23.5361 48.2738 23.7281 48.374 23.9618C48.4909 24.1789 48.5994 24.4544 48.6996 24.7883C48.8665 25.6064 48.7914 26.3995 48.4742 27.1675C48.1736 27.9355 47.7061 28.6702 47.0717 29.3714C46.4372 30.056 45.7026 30.6988 44.8678 31.2998C44.033 31.9009 43.1814 32.4519 42.3132 32.9528C41.445 33.437 40.6102 33.846 39.8088 34.18C39.0074 34.5306 38.3228 34.8144 37.7551 35.0315C37.6049 35.0816 37.463 35.0649 37.3294 34.9814C37.1958 34.8979 37.104 34.7977 37.0539 34.6809ZM40.2345 17.7508V22.359C40.3347 22.2588 40.4766 22.1252 40.6603 21.9583C40.844 21.7746 41.0527 21.5659 41.2864 21.3321C41.5202 21.0984 41.7623 20.8563 42.0127 20.6059C42.2798 20.3554 42.5219 20.1133 42.739 19.8796C42.9727 19.6291 43.1731 19.4121 43.3401 19.2284C43.5237 19.0448 43.6656 18.9028 43.7658 18.8027C43.8994 18.6691 44.058 18.4771 44.2417 18.2266C44.442 17.9595 44.634 17.6924 44.8177 17.4252C45.018 17.1581 45.185 16.9243 45.3186 16.724C45.4521 16.5236 45.5189 16.3984 45.5189 16.3483V15.2964C45.1182 15.2296 44.6424 15.2714 44.0914 15.4217C43.5404 15.5552 42.9894 15.7305 42.4385 15.9476C41.9042 16.1479 41.4033 16.3566 40.9358 16.5737C40.4683 16.7907 40.1177 16.9577 39.8839 17.0746L40.2345 17.7508Z" fill="#473195"/>
<path d="M17.9248 48.1932C17.5935 49.0587 17.1127 49.7693 16.4822 50.325C15.8625 50.8699 15.1519 51.1424 14.3504 51.1424C13.549 51.1424 12.9453 50.8806 12.5392 50.357C12.1439 49.8227 11.9462 49.2137 11.9462 48.5298C11.9462 48.3909 11.9515 48.2519 11.9622 48.113L12.5072 43.5449C12.8491 43.4167 13.2124 43.3526 13.5971 43.3526C14.3024 43.3526 14.655 43.6144 14.655 44.138C14.655 44.1593 14.5642 44.8753 14.3825 46.2858C14.2115 47.6856 14.126 48.4977 14.126 48.7221C14.126 49.3312 14.4199 49.6357 15.0076 49.6357C15.5098 49.6357 15.9319 49.3526 16.2739 48.7862C16.8723 47.7604 17.1875 46.601 17.2195 45.308H17.0753C16.6265 45.308 16.2845 45.2065 16.0495 45.0035C15.7823 44.7684 15.6487 44.4853 15.6487 44.154C15.6487 43.8227 15.7503 43.5556 15.9533 43.3526C16.1991 43.1389 16.4929 43.032 16.8349 43.032C17.647 43.032 18.1545 43.4541 18.3576 44.2983C18.6781 44.2555 18.9079 44.2128 19.0468 44.17V45.0836L18.4537 45.1798V45.4523C18.443 46.414 18.2667 47.3276 17.9248 48.1932ZM16.5624 44.154C16.5624 44.3357 16.7173 44.4265 17.0272 44.4265C17.0593 44.4265 17.0913 44.4265 17.1234 44.4265C17.0486 44.138 16.9364 43.9937 16.7868 43.9937C16.6372 43.9937 16.5624 44.0471 16.5624 44.154ZM20.3948 39.2653C20.6406 39.0089 20.9398 38.8806 21.2924 38.8806C21.645 38.8806 21.9442 39.0089 22.19 39.2653C22.4464 39.5111 22.5747 39.8103 22.5747 40.1629C22.5747 40.5155 22.4464 40.8147 22.19 41.0605C21.9442 41.3063 21.645 41.4292 21.2924 41.4292C20.9398 41.4292 20.6406 41.3063 20.3948 41.0605C20.149 40.8147 20.0261 40.5155 20.0261 40.1629C20.0261 39.8103 20.149 39.5111 20.3948 39.2653ZM19.7376 43.9617C19.8445 43.7693 20.0475 43.6251 20.3467 43.5289C20.6459 43.422 20.9398 43.3686 21.2283 43.3686C21.5275 43.3686 21.7893 43.406 22.0137 43.4808C21.5969 46.6972 21.3886 48.3214 21.3886 48.3535C21.3351 48.5672 21.3084 48.7488 21.3084 48.8984C21.3084 49.0373 21.3191 49.1602 21.3405 49.2671C21.3832 49.5449 21.5756 49.6838 21.9175 49.6838C22.2701 49.6838 22.5907 49.4594 22.8792 49.0106C23.1784 48.5511 23.4028 48.0329 23.5524 47.4559C23.6272 47.4986 23.7448 47.6268 23.905 47.8405C24.0653 48.0543 24.1615 48.2145 24.1935 48.3214C23.9798 49.1763 23.6165 49.8655 23.1036 50.3891C22.5907 50.9127 21.9763 51.1745 21.2603 51.1745C20.5444 51.1745 20.0101 50.9982 19.6575 50.6455C19.3156 50.2929 19.1446 49.8388 19.1446 49.2831C19.1446 49.1656 19.1499 49.0427 19.1606 48.9145L19.7376 43.9617ZM25.8676 47.4719C26.5302 47.333 27.0217 47.0658 27.3423 46.6705C27.6735 46.2751 27.8391 45.8958 27.8391 45.5324C27.8391 45.1584 27.7376 44.9073 27.5346 44.7791C27.3423 44.6402 27.1286 44.5707 26.8935 44.5707C26.3912 44.5707 25.9478 44.8539 25.5631 45.4202C25.1891 45.9759 25.0021 46.6438 25.0021 47.4238C25.0021 48.1932 25.1838 48.7702 25.5471 49.1549C25.9211 49.5289 26.3806 49.7159 26.9255 49.7159C27.7269 49.7159 28.4963 49.438 29.2336 48.8824C29.9709 48.3267 30.5693 47.6001 31.0288 46.7025C31.2639 46.9269 31.4776 47.2047 31.67 47.536C31.3173 48.3374 30.6922 49.1228 29.7946 49.8922C29.3458 50.2662 28.8115 50.5707 28.1918 50.8058C27.5827 51.0409 26.9522 51.1584 26.3004 51.1584C25.2319 51.1584 24.3877 50.8325 23.7679 50.1807C23.1054 49.4754 22.7742 48.5725 22.7742 47.4719C22.7742 46.3713 23.1855 45.4096 24.0083 44.5868C24.8418 43.764 25.8356 43.3526 26.9896 43.3526C27.8124 43.3526 28.4803 43.5342 28.9932 43.8975C29.5061 44.2502 29.7679 44.731 29.7786 45.3401C29.7786 46.1629 29.4473 46.8308 28.7848 47.3437C28.133 47.8566 27.2354 48.2145 26.092 48.4176L25.8676 47.4719ZM36.8282 48.5137C36.8282 49.2831 37.1541 49.6678 37.806 49.6678C37.8273 49.6678 37.8434 49.6678 37.8541 49.6678C38.1533 49.6678 38.4204 49.5075 38.6555 49.1869C38.8906 48.8664 39.0669 48.4657 39.1844 47.9848C39.4409 47.0017 39.5691 46.1095 39.5691 45.308H39.4248C38.9761 45.308 38.6288 45.2065 38.383 45.0035C38.1265 44.7684 37.9983 44.4853 37.9983 44.154C37.9983 43.8227 38.0998 43.5556 38.3029 43.3526C38.5486 43.1282 38.8532 43.016 39.2165 43.016C40.0072 43.016 40.5415 43.422 40.8193 44.2341C41.5673 44.0525 42.3581 43.8014 43.1915 43.4808V44.3944C42.4008 44.6936 41.6635 44.9234 40.9796 45.0836C40.9903 45.1691 40.9956 45.292 40.9956 45.4523C40.9529 47.6642 40.4346 49.2671 39.4409 50.2608C38.8532 50.8486 38.0891 51.1424 37.1488 51.1424C36.2192 51.1424 35.5246 50.747 35.0651 49.9563C34.5415 50.7577 33.7401 51.1584 32.6608 51.1584C32.0197 51.1584 31.4908 50.934 31.074 50.4852C30.668 50.0258 30.4649 49.4861 30.4649 48.8664C30.4649 48.7595 30.4703 48.6313 30.481 48.4817C30.7054 46.6224 30.8924 44.9768 31.042 43.5449C31.4266 43.4167 31.7632 43.3526 32.0518 43.3526C32.8104 43.3526 33.1898 43.6144 33.1898 44.138C33.1898 44.341 33.1096 45.0409 32.9493 46.2377C32.7463 47.7444 32.6448 48.5939 32.6448 48.7862C32.6448 48.9679 32.7143 49.1495 32.8532 49.3312C33.0028 49.5128 33.2111 49.6037 33.4783 49.6037C33.7561 49.6037 34.0019 49.4808 34.2156 49.235C34.4293 48.9893 34.5843 48.6901 34.6804 48.3374L35.2414 43.5449C35.5834 43.4167 35.9467 43.3526 36.3314 43.3526C37.0259 43.3526 37.3732 43.6144 37.3732 44.138C37.3732 44.3303 37.2984 44.9554 37.1488 46.0133C36.9351 47.5093 36.8282 48.3428 36.8282 48.5137ZM38.9119 44.154C38.9119 44.3357 39.0669 44.4265 39.3768 44.4265C39.4088 44.4265 39.4409 44.4265 39.4729 44.4265C39.3981 44.138 39.2859 43.9937 39.1363 43.9937C38.9867 43.9937 38.9119 44.0471 38.9119 44.154ZM44.8545 47.4719C45.517 47.333 46.0085 47.0658 46.3291 46.6705C46.6604 46.2751 46.826 45.8958 46.826 45.5324C46.826 45.1584 46.7245 44.9073 46.5215 44.7791C46.3291 44.6402 46.1154 44.5707 45.8803 44.5707C45.3781 44.5707 44.9346 44.8539 44.55 45.4202C44.176 45.9759 43.989 46.6438 43.989 47.4238C43.989 48.1932 44.1706 48.7702 44.5339 49.1549C44.9079 49.5289 45.3674 49.7159 45.9124 49.7159C46.7138 49.7159 47.4832 49.438 48.2205 48.8824C48.9578 48.3267 49.5562 47.6001 50.0157 46.7025C50.2507 46.9269 50.4645 47.2047 50.6568 47.536C50.3042 48.3374 49.6791 49.1228 48.7815 49.8922C48.3327 50.2662 47.7984 50.5707 47.1786 50.8058C46.5695 51.0409 45.9391 51.1584 45.2873 51.1584C44.2187 51.1584 43.3745 50.8325 42.7548 50.1807C42.0923 49.4754 41.761 48.5725 41.761 47.4719C41.761 46.3713 42.1724 45.4096 42.9952 44.5868C43.8287 43.764 44.8224 43.3526 45.9765 43.3526C46.7993 43.3526 47.4671 43.5342 47.98 43.8975C48.493 44.2502 48.7548 44.731 48.7654 45.3401C48.7654 46.1629 48.4342 46.8308 47.7717 47.3437C47.1198 47.8566 46.2223 48.2145 45.0789 48.4176L44.8545 47.4719ZM54.068 45.4523C54.068 44.9821 53.8489 44.7471 53.4108 44.7471C52.9834 44.7471 52.6414 45.0249 52.385 45.5805C53.539 46.4888 54.1161 47.5093 54.1161 48.642C54.1161 49.4648 53.8863 50.0899 53.4268 50.5173C52.9674 50.9447 52.3903 51.1584 51.6958 51.1584C51.0012 51.1584 50.4936 50.9447 50.1731 50.5173C49.8525 50.0792 49.6922 49.5289 49.6922 48.8664C49.6922 48.6633 49.6976 48.5137 49.7082 48.4176L50.2692 43.5289C50.6539 43.4113 51.0439 43.3526 51.4393 43.3526C52.0911 43.3526 52.417 43.593 52.417 44.0739V44.1059C52.8445 43.6037 53.3894 43.3526 54.052 43.3526C54.5328 43.3526 54.9068 43.4648 55.1739 43.6892C55.4411 43.9029 55.5747 44.1914 55.5747 44.5547C55.5747 44.918 55.4357 45.2172 55.1579 45.4523C54.8908 45.6767 54.5381 45.7889 54.1 45.7889C54.0787 45.7889 54.0573 45.7889 54.0359 45.7889C54.0573 45.6714 54.068 45.5592 54.068 45.4523ZM53.0742 48.5618C53.0742 47.9421 52.7536 47.3223 52.1125 46.7025C51.9202 48.2413 51.824 49.016 51.824 49.0267C51.824 49.4754 52.0057 49.6998 52.369 49.6998C52.8391 49.6998 53.0742 49.3205 53.0742 48.5618Z" fill="#BECEEE"/>
<defs>
<linearGradient id="paint0_linear_6_12" x1="46.4158" y1="5.0089" x2="15.6945" y2="65.1156" gradientUnits="userSpaceOnUse">
<stop stop-color="#FCAFE4"/>
<stop offset="1" stop-color="#8D0867"/>
</linearGradient>
</defs>
</svg>
